<svg width="16" height="17" viewBox="0 0 16 17" fill="none" xmlns="http://www.w3.org/2000/svg">
<g id="arrowleft">
<path id="Vector" d="M6.84617 8.04759L11.3291 3.7378C11.4526 3.61942 11.5205 3.46113 11.5205 3.29236C11.5205 3.12349 11.4526 2.96531 11.3291 2.84673L10.9363 2.46929C10.8131 2.35053 10.6483 2.28516 10.4728 2.28516C10.2972 2.28516 10.1326 2.35053 10.0093 2.46929L4.67162 7.60046C4.54779 7.71941 4.47998 7.87835 4.48047 8.04731C4.47998 8.21702 4.54769 8.37577 4.67162 8.49481L10.0043 13.621C10.1277 13.7398 10.2922 13.8052 10.4679 13.8052C10.6434 13.8052 10.808 13.7398 10.9314 13.621L11.3242 13.2436C11.5797 12.9979 11.5797 12.598 11.3242 12.3524L6.84617 8.04759Z" fill="#E73F4E"/>
</g>
</svg>
