<svg width="16" height="17" viewBox="0 0 16 17" fill="none" xmlns="http://www.w3.org/2000/svg">
<g id="arrowright">
<path id="Vector" d="M9.15383 8.04759L4.67088 3.7378C4.54744 3.61942 4.47953 3.46113 4.47953 3.29236C4.47953 3.12349 4.54744 2.96531 4.67088 2.84673L5.0637 2.46929C5.18694 2.35053 5.35169 2.28516 5.52725 2.28516C5.70281 2.28516 5.86736 2.35053 5.9907 2.46929L11.3284 7.60047C11.4522 7.71941 11.52 7.87835 11.5195 8.04731C11.52 8.21702 11.4523 8.37577 11.3284 8.49481L5.99568 13.621C5.87233 13.7398 5.70778 13.8052 5.53212 13.8052C5.35656 13.8052 5.19201 13.7398 5.06857 13.621L4.67585 13.2436C4.4203 12.9979 4.4203 12.598 4.67585 12.3524L9.15383 8.04759Z" fill="white"/>
</g>
</svg>
