<svg width="22" height="20" viewBox="0 0 22 20" fill="none" xmlns="http://www.w3.org/2000/svg">
<path id="Star 15" d="M10.4294 0.801153C10.609 0.248366 11.391 0.248366 11.5706 0.801152L13.5595 6.92213C13.6398 7.16934 13.8702 7.33672 14.1301 7.33672H20.5661C21.1473 7.33672 21.389 8.08049 20.9187 8.42213L15.7119 12.2051C15.5016 12.3579 15.4136 12.6287 15.494 12.8759L17.4828 18.9969C17.6624 19.5497 17.0297 20.0094 16.5595 19.6677L11.3527 15.8847C11.1424 15.732 10.8576 15.732 10.6473 15.8847L5.44052 19.6677C4.97029 20.0094 4.3376 19.5497 4.51721 18.9969L6.50604 12.8759C6.58636 12.6287 6.49837 12.3579 6.28807 12.2051L1.08126 8.42213C0.611033 8.08049 0.852698 7.33672 1.43393 7.33672H7.86991C8.12984 7.33672 8.36022 7.16934 8.44054 6.92213L10.4294 0.801153Z" fill="#FDD836"/>
</svg>
